# xmcd CD database file
#
# Track frame offsets:
#	182
#	44387
#	56825
#	68970
#	112535
#	160035
#	172580
#	216097
#	258417
#	277860
#	295750
#
# Disc length: 4196 seconds
#
# Revision: 0
# Processed by: cddbd v1.5.2PL0 Copyright (c) Steve Scherf et al.
# Submitted via: CDex 1.51
#
DISCID=9010620b
DTITLE=Erroll Garner - 1944 Vol.3
DYEAR=1995
DGENRE=Jazz
TTITLE0=Variations On A Nursery Rhyme
TTITLE1=Just You, Just Me
TTITLE2=Yesterdays
TTITLE3=Easy To Love
TTITLE4=Duke For Dinner
TTITLE5=Love Is The Thing (Part 1)
TTITLE6=In The Beginning
TTITLE7=I Got Rhythm
TTITLE8=Great Christmas (Part 1)
TTITLE9=Great Christmas_White Christmas (Part 2)
TTITLE10=Somebody Loves Me (vocal Inez Cavanaugh)
EXTD=YEAR: 1995
EXTT0=
EXTT1=
EXTT2=
EXTT3=
EXTT4=
EXTT5=
EXTT6=
EXTT7=
EXTT8=
EXTT9=
EXTT10=
PLAYORDER=
